<svg id="Capa_1" enable-background="new 0 0 512.026 512.026" height="50" viewBox="0 0 512.026 512.026" width="50" xmlns="http://www.w3.org/2000/svg" fill="hsla(0, 0%, 100%, 0.75)"><g><path d="m498.509 233.086-151.939-15.099-13.531-33.829c-11.456-28.64-38.79-47.146-69.636-47.146-89.395 0 91.7 0-92.656 0-21.228 0-41.547 9.049-55.747 24.828l-49.655 55.172h-20.319c-24.813 0-45 20.187-45 45 0 8.833-.222 13.783.643 19.997 4.672 34.777 34.695 61.003 69.837 61.003h12.989c6.276 18.58 23.86 32 44.531 32s38.255-13.42 44.531-32h166.937c6.276 18.58 23.86 32 44.531 32s38.255-13.42 44.531-32h12.988c38.863 0 70.48-31.617 70.48-70.48v-24.52c.002-7.709-5.843-14.163-13.515-14.926zm-193.323-37.786 8.685 21.712h-78.685l-15-50h43.218c18.507.001 34.908 11.104 41.782 28.288zm-167.887-13.391c8.52-9.467 20.711-14.896 33.448-14.896h18.118l15 50h-98.159zm-9.273 163.104c-9.374 0-17-7.626-17-17s7.626-17 17-17 17 7.626 17 17-7.626 17-17 17zm256 0c-9.374 0-17-7.626-17-17s7.626-17 17-17 17 7.626 17 17-7.626 17-17 17zm98-72.48c0 22.321-18.159 40.48-40.48 40.48h-12.988c-6.276-18.58-23.86-32-44.531-32s-38.255 13.42-44.531 32h-166.939c-6.276-18.58-23.86-32-44.531-32s-38.255 13.42-44.531 32h-12.989c-13.85 0-26.313-7.086-33.641-18h3.161c8.284 0 15-6.716 15-15s-6.716-15-15-15h-10v-3c0-8.271 6.729-15 15-15h164v17c0 8.284 6.716 15 15 15s15-6.716 15-15v-17h96.256l146.744 14.583z"/></g></svg>