<svg id="Capa_1" enable-background="new 0 0 511.998 511.998" height="512" viewBox="0 0 511.998 511.998" width="512" xmlns="http://www.w3.org/2000/svg" fill="hsla(0, 0%, 100%, 0.75)"><g><path d="m504.725 243.405c-49.273-29.617-109.972-44.094-162.043-42.971-22.736-25.452-53.625-41.552-87.803-45.58-57.351-6.745-115.095 7.679-166.163 46.862-71.307 14.247-76.342 15.243-77.147 15.432-9.845 2.317-14.509 13.423-9.6 22.018 1.45 2.547 1.334 2.143 18.081 18.22-11.987 16.058-12.19 15.991-13.192 18.725-1.455 3.953-1.139 8.306.696 11.934 12.08 23.869 36.19 38.697 62.924 38.697h12.989c6.276 18.58 23.86 32 44.531 32s38.255-13.42 44.531-32h166.937c6.276 18.58 23.86 32 44.531 32s38.255-13.42 44.531-32h12.988c38.863 0 70.48-31.617 70.48-70.48.002-5.265-2.758-10.145-7.271-12.857zm-253.353-58.756c23.238 2.739 44.545 12.579 61.433 28.141-27.791 15.435-58.669 19.913-91.538 13.791l-6.121-42.861c11.964-.797 24.082-.5 36.226.929zm-65.916 3.37 4.227 29.599c-16.312-6.061-33.152-10.482-49.719-13.218 14.479-7.362 29.749-12.846 45.492-16.381zm-57.458 140.722c-9.374 0-17-7.626-17-17s7.626-17 17-17 17 7.626 17 17-7.626 17-17 17zm256 0c-9.374 0-17-7.626-17-17s7.626-17 17-17 17 7.626 17 17-7.626 17-17 17zm57.519-32h-12.988c-6.276-18.58-23.86-32-44.531-32s-38.255 13.42-44.531 32h-166.938c-6.276-18.58-23.86-32-44.531-32s-38.255 13.42-44.531 32h-12.989c-12.35 0-23.726-5.51-31.319-14.802l12.859-17.224c4.528-6.065 3.829-14.553-1.631-19.794l-4.271-4.1 50.371-10.064c21.107.124 42.235 2.874 63.157 8.646 11.096 3.059 17.746 5.702 23.818 7.874l-4.879 9.753c-3.706 7.409-.704 16.42 6.705 20.126 7.438 3.721 16.435.674 20.126-6.705l7.449-14.892c47.99 9.723 91.979-.077 128.26-25.07 43.127-1.516 96.371 9.884 140.043 33.96-3.798 18.409-20.133 32.292-39.649 32.292z"/></g></svg>